<?xml version="1.0" standalone="no"?>
<!DOCTYPE svg PUBLIC "-//W3C//DTD SVG 20010904//EN"
 "http://www.w3.org/TR/2001/REC-SVG-20010904/DTD/svg10.dtd">
<svg version="1.0" xmlns="http://www.w3.org/2000/svg"
 width="512.000000pt" height="512.000000pt" viewBox="0 0 512.000000 512.000000"
 preserveAspectRatio="xMidYMid meet">

<g transform="translate(0.000000,512.000000) scale(0.100000,-0.100000)"
fill="#000000" stroke="none">
<path d="M1600 4960 l0 -160 -320 0 -320 0 0 -160 0 -160 -160 0 -160 0 0
-160 0 -160 -160 0 -160 0 0 -320 0 -320 -160 0 -160 0 0 -960 0 -960 160 0
160 0 0 -320 0 -320 160 0 160 0 0 -160 0 -160 160 0 160 0 0 -160 0 -160 320
0 320 0 0 -160 0 -160 960 0 960 0 0 160 0 160 320 0 320 0 0 160 0 160 160 0
160 0 0 160 0 160 160 0 160 0 0 320 0 320 160 0 160 0 0 960 0 960 -160 0
-160 0 0 320 0 320 -160 0 -160 0 0 160 0 160 -160 0 -160 0 0 160 0 160 -320
0 -320 0 0 160 0 160 -960 0 -960 0 0 -160z m1920 -320 l0 -160 320 0 320 0 0
-160 0 -160 160 0 160 0 0 -320 0 -320 160 0 160 0 0 -960 0 -960 -160 0 -160
0 0 -320 0 -320 -160 0 -160 0 0 -160 0 -160 -320 0 -320 0 0 -160 0 -160
-960 0 -960 0 0 160 0 160 -320 0 -320 0 0 160 0 160 -160 0 -160 0 0 320 0
320 -160 0 -160 0 0 960 0 960 160 0 160 0 0 320 0 320 160 0 160 0 0 160 0
160 320 0 320 0 0 160 0 160 960 0 960 0 0 -160z"/>
</g>
</svg>
